<svg viewBox="0 0 24 24" fill="none" xmlns="http://www.w3.org/2000/svg" id="Medal-Ribbons-Star--Streamline-Solar-Ar" height="24" width="24">
  <desc>
    Medal Ribbons Star Streamline Icon: https://streamlinehq.com
  </desc>
  <path d="M11.1459 7.02251C11.5259 6.34084 11.7159 6 12 6s0.4741 0.34084 0.8541 1.02251l0.0983 0.17636c0.1079 0.19371 0.1619 0.29057 0.2461 0.35447 0.0842 0.06391 0.189 0.08763 0.3987 0.13507l0.1909 0.0432c0.7379 0.16696 1.1069 0.25044 1.1947 0.53271 0.0878 0.28227 -0.1638 0.5764 -0.6668 1.16466l-0.1302 0.15219c-0.1429 0.16716 -0.2144 0.25074 -0.2466 0.35414 -0.0321 0.10339 -0.0213 0.21489 0.0003 0.43799l0.0197 0.203c0.076 0.7849 0.1141 1.1773 -0.1157 1.3518 -0.2299 0.1744 -0.5753 0.0154 -1.2662 -0.3027l-0.1787 -0.0823c-0.1964 -0.0904 -0.2945 -0.1356 -0.3986 -0.1356 -0.1041 0 -0.2022 0.0452 -0.3986 0.1356l-0.1787 0.0823c-0.6909 0.3181 -1.0363 0.4771 -1.2662 0.3027 -0.22976 -0.1745 -0.19174 -0.5669 -0.1157 -1.3518l0.0197 -0.203c0.0216 -0.2231 0.0324 -0.3346 0.0003 -0.43799 -0.0322 -0.1034 -0.10367 -0.18698 -0.24662 -0.35414l-0.13015 -0.15219c-0.50306 -0.58826 -0.75458 -0.88239 -0.6668 -1.16466 0.08778 -0.28227 0.45673 -0.36575 1.19467 -0.53271l0.1909 -0.0432c0.2097 -0.04744 0.3145 -0.07116 0.3987 -0.13507 0.0842 -0.0639 0.1382 -0.16076 0.2461 -0.35447l0.0983 -0.17636Z" stroke="#000000" stroke-width="1.5"></path>
  <path d="M19 9c0 3.866 -3.134 7 -7 7 -3.86599 0 -7 -3.134 -7 -7 0 -3.86599 3.13401 -7 7 -7 3.866 0 7 3.13401 7 7Z" stroke="#000000" stroke-width="1.5"></path>
  <path d="m12 16.0678 -3.77145 3.905c-0.54012 0.5593 -0.81018 0.8389 -1.03888 0.9356 -0.52115 0.2205 -1.09925 0.0318 -1.37339 -0.4482 -0.12031 -0.2107 -0.1578 -0.5907 -0.23278 -1.3507 -0.04233 -0.4291 -0.0635 -0.6437 -0.12775 -0.8234 -0.14384 -0.4023 -0.44609 -0.7153 -0.83465 -0.8642 -0.17356 -0.0665 -0.38077 -0.0884 -0.79521 -0.1323 -0.73402 -0.0776 -1.10103 -0.1164 -1.30451 -0.241 -0.46366 -0.2838 -0.6459 -0.8824 -0.43295 -1.422 0.09345 -0.2368 0.36351 -0.5164 0.90363 -1.0757L5.45575 12" stroke="#000000" stroke-width="1.5"></path>
  <path d="m12 16.0678 3.7715 3.905c0.5401 0.5593 0.8101 0.8389 1.0388 0.9356 0.5212 0.2205 1.0993 0.0318 1.3734 -0.4482 0.1203 -0.2107 0.1578 -0.5907 0.2328 -1.3507 0.0423 -0.4291 0.0635 -0.6437 0.1277 -0.8234 0.1439 -0.4023 0.4461 -0.7153 0.8347 -0.8642 0.1736 -0.0665 0.3808 -0.0884 0.7952 -0.1323 0.734 -0.0776 1.101 -0.1164 1.3045 -0.241 0.4637 -0.2838 0.6459 -0.8824 0.433 -1.422 -0.0935 -0.2368 -0.3635 -0.5164 -0.9037 -1.0757L18.5442 12" stroke="#000000" stroke-width="1.5"></path>
</svg>